<?xml version="1.0" encoding="utf-8"?>
<!-- Generator: Adobe Illustrator 16.0.0, SVG Export Plug-In . SVG Version: 6.00 Build 0)  -->
<!DOCTYPE svg PUBLIC "-//W3C//DTD SVG 1.1//EN" "http://www.w3.org/Graphics/SVG/1.1/DTD/svg11.dtd">
<svg version="1.1" id="Layer_1" xmlns="http://www.w3.org/2000/svg" xmlns:xlink="http://www.w3.org/1999/xlink" x="0px" y="0px"
	 width="100.819px" height="103.278px" viewBox="0 0 100.819 103.278" enable-background="new 0 0 100.819 103.278"
	 xml:space="preserve">
<path fill="#FFFFFF" stroke="#000000" stroke-miterlimit="10" d="M22.426,12.262c3.916,13.892,1.229,19.672-17.174,24.251
	c12.256,16.732,10.45,22.707-0.797,34.271C17.508,69.64,26.115,70.05,21.196,90.95c14.174-7.54,21.099-5.277,32.574,7.018
	c5.328-17.213,16.752-15.636,26.442-10.295c-4.098-18.033,0-20.902,15.164-22.951c-13.524-9.017-10.246-15.983,0.409-25
	c-15.573-3.623-19.671-6.558-16.803-23.771c-17.213,7.787-21.115-1.59-27.262-11.017C45.786,19.23,37.994,17.771,22.426,12.262z"/>
</svg>
